<svg width="527" height="527" viewBox="0 0 527 527" fill="none" xmlns="http://www.w3.org/2000/svg">
<path d="M263.5 510.402C399.967 510.402 510.596 399.774 510.596 263.307C510.596 126.84 399.967 16.2118 263.5 16.2118C127.033 16.2118 16.4041 126.84 16.4041 263.307C16.4041 399.774 127.033 510.402 263.5 510.402Z" fill="#D9D9D9" stroke="black" stroke-width="32"/>
<mask id="mask0_14_73" style="mask-type:alpha" maskUnits="userSpaceOnUse" x="32" y="32" width="463" height="463">
<path d="M494.096 263.307C494.096 390.661 390.855 493.902 263.5 493.902C136.145 493.902 32.9041 390.661 32.9041 263.307C32.9041 135.953 136.145 32.7118 263.5 32.7118C390.855 32.7118 494.096 135.953 494.096 263.307Z" fill="#D9D9D9" stroke="black"/>
</mask>
<g mask="url(#mask0_14_73)">
<rect x="-1.96582" y="25.9114" width="553.077" height="262.311" fill="#EFEFEF"/>
<rect x="-1.96582" y="270.23" width="553.077" height="224.172" fill="white"/>
<rect x="197.216" y="-21.7891" width="132.568" height="266.734" fill="#942941"/>
<rect x="11.2224" y="247.307" width="504.555" height="32" fill="black"/>
<circle cx="263.5" cy="263.307" r="89.5373" fill="white" stroke="black" stroke-width="32"/>
</g>
</svg>
